<?xml version="1.0" standalone="no"?>
<!DOCTYPE svg PUBLIC "-//W3C//DTD SVG 20010904//EN"
 "http://www.w3.org/TR/2001/REC-SVG-20010904/DTD/svg10.dtd">
<svg version="1.0" xmlns="http://www.w3.org/2000/svg"
 width="140.000000pt" height="100.000000pt" viewBox="0 0 140.000000 100.000000"
 preserveAspectRatio="xMidYMid meet">

<g transform="translate(0.000000,100.000000) scale(0.100000,-0.100000)"
fill="#000000" stroke="none">
<path d="M596 924 c-98 -30 -168 -93 -213 -189 -36 -79 -39 -194 -6 -267 42
-92 111 -159 201 -194 29 -11 31 -13 7 -8 -16 4 -66 7 -110 8 l-80 1 -3 -31
c-2 -19 3 -36 12 -44 10 -8 16 -29 16 -56 l0 -44 -107 0 c-74 0 -103 -3 -93
-10 8 -5 34 -10 57 -10 23 0 62 -6 85 -14 53 -18 128 -21 188 -7 25 5 77 10
115 11 93 1 66 16 -46 25 -84 6 -87 8 -92 33 -3 15 -8 34 -12 43 -7 19 33 31
98 30 45 -1 77 13 77 34 0 8 12 17 28 20 83 16 121 28 152 49 19 13 54 25 78
28 45 7 42 10 55 -62 3 -14 11 -41 17 -60 33 -91 51 -92 136 -7 55 55 64 69
64 100 0 19 -3 42 -6 51 -14 36 -83 6 -105 -45 l-12 -31 -23 29 c-13 15 -28
43 -34 61 -7 17 -15 32 -18 32 -4 0 -13 4 -20 8 -10 7 -8 18 8 54 43 99 34
226 -25 317 -83 130 -243 189 -389 145z m241 -45 c71 -34 116 -81 151 -158 33
-72 35 -174 5 -243 -28 -62 -96 -134 -158 -166 -43 -23 -62 -27 -140 -27 -78
0 -97 4 -141 27 -68 36 -138 115 -160 181 -49 147 12 308 145 381 98 53 194
55 298 5z m179 -506 c-4 -10 -4 -14 0 -11 8 8 45 -62 39 -72 -3 -4 -14 -10
-25 -13 -16 -4 -20 0 -20 21 0 43 -13 55 -49 47 -17 -4 -31 -3 -31 1 0 19 36
44 63 44 23 0 28 -3 23 -17z m-375 -120 c14 9 21 9 31 -1 21 -21 -14 -39 -72
-37 -55 2 -65 7 -57 29 4 11 14 12 43 6 24 -6 43 -5 55 3z"/>
<path d="M597 856 c-105 -38 -177 -139 -177 -248 0 -32 4 -58 10 -58 6 0 10
26 10 58 1 74 25 127 83 178 98 86 232 86 335 0 23 -20 32 -24 32 -13 0 18
-41 50 -102 77 -50 23 -135 25 -191 6z"/>
<path d="M637 777 c-23 -7 -28 -14 -24 -32 3 -17 -4 -29 -23 -44 -36 -26 -46
-66 -24 -98 16 -25 19 -26 98 -21 89 6 106 3 106 -18 0 -20 -37 -41 -100 -57
-44 -11 -56 -19 -58 -37 -4 -21 -1 -22 35 -17 21 3 45 8 55 12 11 4 18 0 23
-14 7 -24 13 -25 49 -11 21 8 24 13 17 32 -6 18 -2 28 26 54 32 30 42 65 25
91 -14 23 -61 32 -130 26 -110 -9 -110 33 0 64 50 14 58 19 58 41 0 25 -6 26
-71 6 -9 -2 -20 4 -25 14 -8 16 -14 18 -37 9z"/>
<path d="M940 603 c0 -87 -52 -174 -129 -216 -90 -50 -177 -46 -264 10 -47 30
-64 20 -22 -13 119 -95 314 -60 390 70 32 55 54 161 37 178 -9 9 -12 3 -12
-29z"/>
<path d="M385 870 c3 -5 19 -10 35 -10 16 0 32 5 35 10 4 6 -10 10 -35 10 -25
0 -39 -4 -35 -10z"/>
<path d="M338 823 c12 -2 32 -2 45 0 12 2 2 4 -23 4 -25 0 -35 -2 -22 -4z"/>
<path d="M275 750 c-4 -6 10 -10 34 -10 23 0 41 5 41 10 0 6 -15 10 -34 10
-19 0 -38 -4 -41 -10z"/>
<path d="M268 683 c12 -2 32 -2 45 0 12 2 2 4 -23 4 -25 0 -35 -2 -22 -4z"/>
<path d="M253 623 c15 -2 37 -2 50 0 12 2 0 4 -28 4 -27 0 -38 -2 -22 -4z"/>
<path d="M275 570 l-40 -7 43 -2 c23 0 42 4 42 9 0 6 -1 9 -2 9 -2 -1 -21 -5
-43 -9z"/>
<path d="M270 510 c-21 -7 -19 -8 17 -9 23 -1 45 4 48 9 7 12 -29 12 -65 0z"/>
<path d="M285 430 c3 -5 21 -10 40 -10 19 0 37 5 40 10 4 6 -12 10 -40 10 -28
0 -44 -4 -40 -10z"/>
<path d="M928 63 c18 -2 45 -2 60 0 15 2 0 4 -33 4 -33 0 -45 -2 -27 -4z"/>
</g>
</svg>
